<svg xmlns="http://www.w3.org/2000/svg" version="1.1" xmlns:xlink="http://www.w3.org/1999/xlink" xmlns:svgjs="http://svgjs.dev/svgjs" width="2000" height="1500" viewBox="0 0 2000 1500"><rect width="2000" height="1500" fill="#243837"></rect><g transform="matrix(0.75,0,0,0.75,249.090909090909,470.5751703046342)"><svg viewBox="0 0 396 148" data-background-color="#243837" preserveAspectRatio="xMidYMid meet" height="747" width="2000" xmlns="http://www.w3.org/2000/svg" xmlns:xlink="http://www.w3.org/1999/xlink"><g id="tight-bounds" transform="matrix(1,0,0,1,0.2400000000000091,-0.18496243656555578)"><svg viewBox="0 0 395.52 148.3699248731311" height="148.3699248731311" width="395.52"><g><svg viewBox="0 0 651.5976306510059 244.43135999999998" height="148.3699248731311" width="395.52"><g transform="matrix(1,0,0,1,256.07763065100596,27.501138262346075)"><svg viewBox="0 0 395.52 189.42908347530783" height="189.42908347530783" width="395.52"><g id="textblocktransform"><svg viewBox="0 0 395.52 189.42908347530783" height="189.42908347530783" width="395.52" id="textblock"><g><svg viewBox="0 0 395.52 160.65369436680842" height="160.65369436680842" width="395.52"><g transform="matrix(1,0,0,1,0,0)"><svg width="395.52" viewBox="0.15000000000000124 -33.84 285.8100000000001 110.62" height="160.65369436680842" data-palette-color="#fe7833"><svg></svg><svg></svg><svg></svg><g class="wordmark-text-0" data-fill-palette-color="primary" id="text-0"><path d="M16.16-33.84l11.55 33.84h-4.27l-3.32-10.5h-12.5l-3.35 10.5h-4.12l11.54-33.84zM10.35-19.07v0l-1.71 5.37h10.48l-1.71-5.37c-0.62-1.9-1.207-3.787-1.76-5.66-0.553-1.873-1.117-3.793-1.69-5.76v0h-0.21c-0.507 1.967-1.047 3.887-1.62 5.76-0.567 1.873-1.16 3.76-1.78 5.66zM43.24 0h-10.67v-33.84h9.89c3.447 0 6.24 0.647 8.38 1.94 2.14 1.293 3.21 3.407 3.21 6.34v0c0 1.673-0.433 3.183-1.3 4.53-0.873 1.34-2.107 2.27-3.7 2.79v0 0.22c2.033 0.407 3.7 1.283 5 2.63 1.307 1.34 1.96 3.173 1.96 5.5v0c0 2.2-0.54 4.033-1.62 5.5-1.073 1.46-2.57 2.557-4.49 3.29-1.92 0.733-4.14 1.1-6.66 1.1zM36.57-30.59v11.23h5.1c2.967 0 5.11-0.51 6.43-1.53 1.313-1.013 1.97-2.39 1.97-4.13v0c0-2.04-0.687-3.477-2.06-4.31-1.373-0.84-3.413-1.26-6.12-1.26v0zM36.57-16.28v13.11h6.03c2.967 0 5.283-0.56 6.95-1.68 1.667-1.113 2.5-2.827 2.5-5.14v0c0-2.127-0.823-3.707-2.47-4.74-1.64-1.033-3.967-1.55-6.98-1.55v0zM68.77 0.61v0c-4.1 0-7.07-1.8-8.91-5.4v0l2.74-1.75c0.713 1.267 1.563 2.187 2.55 2.76 0.987 0.567 2.113 0.85 3.38 0.85v0c1.887 0 3.293-0.57 4.22-1.71 0.933-1.14 1.4-3.027 1.4-5.66v0-23.54h4.02v23.9c0 1.953-0.32 3.73-0.96 5.33-0.64 1.593-1.65 2.86-3.03 3.8-1.373 0.947-3.177 1.42-5.41 1.42z" fill="#fe7833" fill-rule="nonzero" stroke="none" stroke-width="1" stroke-linecap="butt" strokeLinejoin="miter" stroke-miterlimit="10" stroke-dasharray="" stroke-dashoffset="0" font-family="none" font-weight="none" font-size="none" text-anchor="none" style="mix-blend-mode: normal" data-fill-palette-color="primary" opacity="1"></path><path d="M8.69 38.08h-4v-33.84h9.47c2.52 0 4.73 0.313 6.63 0.94 1.893 0.627 3.367 1.66 4.42 3.1 1.047 1.44 1.57 3.39 1.57 5.85v0c0 3.533-1.143 6.14-3.43 7.82-2.287 1.687-5.283 2.53-8.99 2.53v0h-5.67zM8.69 7.54v13.69h5.1c3.047 0 5.307-0.563 6.78-1.69 1.473-1.133 2.21-2.937 2.21-5.41v0c0-2.507-0.767-4.233-2.3-5.18-1.527-0.94-3.82-1.41-6.88-1.41v0zM45.21 4.24l11.55 33.84h-4.27l-3.32-10.5h-12.5l-3.34 10.5h-4.13l11.55-33.84zM39.4 19.01v0l-1.7 5.37h10.47l-1.71-5.37c-0.62-1.9-1.207-3.787-1.76-5.66-0.553-1.873-1.113-3.793-1.68-5.76v0h-0.22c-0.507 1.967-1.043 3.887-1.61 5.76-0.573 1.873-1.17 3.76-1.79 5.66zM65.63 38.08h-4.01v-33.84h4.01zM78.81 38.08h-3.81v-33.84h4.17l12.53 21.68c0.62 1.14 1.243 2.297 1.87 3.47 0.627 1.173 1.217 2.337 1.77 3.49v0h0.22c-0.113-1.693-0.23-3.447-0.35-5.26-0.113-1.813-0.17-3.6-0.17-5.36v0-18.02h3.81v33.84h-4.12l-12.58-21.63c-0.613-1.14-1.227-2.303-1.84-3.49-0.613-1.187-1.22-2.36-1.82-3.52v0h-0.19c0.093 1.693 0.203 3.423 0.33 5.19 0.12 1.767 0.18 3.52 0.18 5.26v0zM119.29 38.08h-4.01v-30.44h-10.3v-3.4h24.63v3.4h-10.32zM139.75 38.08h-4.01v-33.84h4.01zM152.93 38.08h-3.81v-33.84h4.18l12.52 21.68c0.62 1.14 1.243 2.297 1.87 3.47 0.627 1.173 1.217 2.337 1.77 3.49v0h0.22c-0.113-1.693-0.227-3.447-0.34-5.26-0.113-1.813-0.17-3.6-0.17-5.36v0-18.02h3.8v33.84h-4.12l-12.58-21.63c-0.613-1.14-1.227-2.303-1.84-3.49-0.607-1.187-1.213-2.36-1.82-3.52v0h-0.19c0.093 1.693 0.203 3.423 0.33 5.19 0.12 1.767 0.18 3.52 0.18 5.26v0zM195.53 38.69v0c-2.96 0-5.587-0.697-7.88-2.09-2.3-1.387-4.097-3.387-5.39-6-1.293-2.613-1.94-5.75-1.94-9.41v0c0-3.633 0.667-6.76 2-9.38 1.34-2.62 3.173-4.643 5.5-6.07 2.327-1.42 4.987-2.13 7.98-2.13v0c2.347 0 4.3 0.44 5.86 1.32 1.56 0.873 2.83 1.823 3.81 2.85v0l-2.2 2.54c-0.847-0.913-1.863-1.667-3.05-2.26-1.187-0.593-2.627-0.89-4.32-0.89v0c-2.313 0-4.323 0.567-6.03 1.7-1.713 1.133-3.037 2.737-3.97 4.81-0.933 2.073-1.4 4.543-1.4 7.41v0c0 4.327 0.983 7.753 2.95 10.28 1.973 2.52 4.79 3.78 8.45 3.78v0c1.233 0 2.413-0.173 3.54-0.52 1.12-0.353 2.03-0.863 2.73-1.53v0-9.08h-7.3v-3.35h11.01v14.11c-1.073 1.14-2.503 2.077-4.29 2.81-1.793 0.733-3.813 1.1-6.06 1.1zM237.35 38.69v0c-1.98 0-3.74-0.393-5.28-1.18-1.54-0.793-2.747-1.89-3.62-3.29-0.867-1.4-1.3-3.01-1.3-4.83v0c0-1.66 0.37-3.12 1.11-4.38 0.74-1.267 1.697-2.397 2.87-3.39 1.173-0.987 2.413-1.91 3.72-2.77 1.313-0.853 2.553-1.703 3.72-2.55 1.173-0.847 2.13-1.75 2.87-2.71 0.74-0.96 1.11-2.05 1.11-3.27v0c0-1.007-0.25-1.897-0.75-2.67-0.507-0.773-1.337-1.16-2.49-1.16v0c-1.307 0-2.347 0.48-3.12 1.44-0.773 0.96-1.16 2.147-1.16 3.56v0c0 1.613 0.387 3.32 1.16 5.12 0.773 1.8 1.807 3.593 3.1 5.38 1.3 1.793 2.737 3.493 4.31 5.1 1.58 1.613 3.177 3.03 4.79 4.25v0c2.7 2 5.173 3.36 7.42 4.08v0l-1.07 3.27c-1.32-0.373-2.717-0.95-4.19-1.73-1.473-0.78-2.983-1.773-4.53-2.98v0c-1.82-1.447-3.593-3.087-5.32-4.92-1.727-1.833-3.273-3.753-4.64-5.76-1.367-2.013-2.453-4.02-3.26-6.02-0.807-2-1.21-3.897-1.21-5.69v0c0-1.5 0.327-2.85 0.98-4.05 0.647-1.207 1.55-2.163 2.71-2.87 1.153-0.707 2.497-1.06 4.03-1.06v0c2.033 0 3.623 0.627 4.77 1.88 1.147 1.253 1.72 2.847 1.72 4.78v0c0 1.433-0.357 2.727-1.07 3.88-0.72 1.16-1.64 2.223-2.76 3.19-1.127 0.967-2.317 1.893-3.57 2.78-1.253 0.887-2.44 1.783-3.56 2.69-1.127 0.9-2.047 1.863-2.76 2.89-0.713 1.027-1.07 2.167-1.07 3.42v0c0 1.94 0.657 3.5 1.97 4.68 1.32 1.18 2.933 1.77 4.84 1.77v0c1.413 0 2.787-0.377 4.12-1.13 1.34-0.747 2.563-1.73 3.67-2.95v0c1.4-1.5 2.6-3.223 3.6-5.17 1-1.94 1.823-4.083 2.47-6.43v0h3.72c-0.753 2.527-1.703 4.937-2.85 7.23-1.147 2.293-2.533 4.383-4.16 6.27v0c-1.42 1.58-3.027 2.86-4.82 3.84-1.8 0.973-3.873 1.46-6.22 1.46z" fill="#fe7833" fill-rule="nonzero" stroke="none" stroke-width="1" stroke-linecap="butt" strokeLinejoin="miter" stroke-miterlimit="10" stroke-dasharray="" stroke-dashoffset="0" font-family="none" font-weight="none" font-size="none" text-anchor="none" style="mix-blend-mode: normal" data-fill-palette-color="primary" opacity="1"></path><path d="M8.69 76.17h-4v-33.84h10.45c2.293 0 4.323 0.303 6.09 0.91 1.767 0.6 3.15 1.587 4.15 2.96 1 1.373 1.5 3.227 1.5 5.56v0c0 2.227-0.5 4.077-1.5 5.55-1 1.473-2.383 2.573-4.15 3.3-1.767 0.72-3.797 1.08-6.09 1.08v0h-6.45zM8.69 45.63v12.82h5.84c2.667 0 4.723-0.553 6.17-1.66 1.453-1.107 2.18-2.783 2.18-5.03v0c0-2.28-0.727-3.873-2.18-4.78-1.447-0.9-3.503-1.35-6.17-1.35v0zM27.81 76.17h-4.52l-8.98-15.6 3.24-2zM53.66 76.17h-19.87v-33.84h19.36v3.4h-15.36v10.91h12.94v3.47h-12.94v12.67h15.87zM64.43 76.17h-3.59v-33.84h4.88l6.59 18.34c0.427 1.187 0.84 2.37 1.24 3.55 0.4 1.18 0.803 2.363 1.21 3.55v0h0.19c0.427-1.187 0.827-2.37 1.2-3.55 0.373-1.18 0.763-2.363 1.17-3.55v0l6.49-18.34h4.96v33.84h-3.76v-19.17c0-1.46 0.057-3.15 0.17-5.07 0.113-1.92 0.227-3.63 0.34-5.13v0h-0.22l-2.66 7.98-6.49 17.95h-2.79l-6.49-17.95-2.69-7.98h-0.22c0.12 1.5 0.227 3.21 0.32 5.13 0.1 1.92 0.15 3.61 0.15 5.07v0zM110.5 76.78v0c-2.82 0-5.31-0.72-7.47-2.16-2.167-1.44-3.86-3.483-5.08-6.13-1.22-2.647-1.83-5.767-1.83-9.36v0c0-3.613 0.61-6.723 1.83-9.33 1.22-2.6 2.913-4.6 5.08-6 2.16-1.4 4.65-2.1 7.47-2.1v0c2.813 0 5.303 0.703 7.47 2.11 2.167 1.407 3.86 3.413 5.08 6.02 1.22 2.6 1.83 5.7 1.83 9.3v0c0 3.593-0.61 6.713-1.83 9.36-1.22 2.647-2.913 4.69-5.08 6.13-2.167 1.44-4.657 2.16-7.47 2.16zM110.5 73.24v0c2.067 0 3.87-0.577 5.41-1.73 1.533-1.16 2.723-2.797 3.57-4.91 0.847-2.113 1.27-4.603 1.27-7.47v0c0-2.867-0.423-5.333-1.27-7.4-0.847-2.067-2.037-3.66-3.57-4.78-1.54-1.127-3.343-1.69-5.41-1.69v0c-2.033 0-3.82 0.563-5.36 1.69-1.54 1.12-2.733 2.713-3.58 4.78-0.847 2.067-1.27 4.533-1.27 7.4v0c0 2.867 0.423 5.357 1.27 7.47 0.847 2.113 2.04 3.75 3.58 4.91 1.54 1.153 3.327 1.73 5.36 1.73zM140.8 76.17h-8.55v-33.84h8.35c5.207 0 9.163 1.467 11.87 4.4 2.7 2.927 4.05 7.06 4.05 12.4v0c0 5.353-1.343 9.533-4.03 12.54-2.687 3-6.583 4.5-11.69 4.5zM136.25 45.63v27.24h4.03c4.04 0 7.06-1.217 9.06-3.65 2-2.433 3-5.797 3-10.09v0c0-4.28-1-7.6-3-9.96-2-2.36-5.02-3.54-9.06-3.54v0zM183.76 76.17h-19.87v-33.84h19.36v3.4h-15.35v10.91h12.93v3.47h-12.93v12.67h15.86zM209.84 76.17h-18.9v-33.84h4.01v30.45h14.89zM219.82 76.17h-4v-33.84h4zM233.01 76.17h-3.81v-33.84h4.17l12.53 21.68c0.62 1.14 1.243 2.297 1.87 3.47 0.627 1.173 1.217 2.337 1.77 3.49v0h0.22c-0.12-1.693-0.237-3.447-0.35-5.26-0.113-1.813-0.17-3.6-0.17-5.36v0-18.02h3.81v33.84h-4.12l-12.58-21.63c-0.62-1.14-1.233-2.303-1.84-3.49-0.613-1.187-1.22-2.36-1.82-3.52v0h-0.19c0.093 1.693 0.2 3.423 0.32 5.19 0.127 1.767 0.19 3.52 0.19 5.26v0zM275.61 76.78v0c-2.96 0-5.59-0.697-7.89-2.09-2.293-1.387-4.087-3.387-5.38-6-1.293-2.613-1.94-5.75-1.94-9.41v0c0-3.633 0.667-6.76 2-9.38 1.333-2.62 3.167-4.643 5.5-6.07 2.327-1.42 4.987-2.13 7.98-2.13v0c2.34 0 4.293 0.44 5.86 1.32 1.56 0.873 2.83 1.823 3.81 2.85v0l-2.2 2.54c-0.847-0.913-1.863-1.667-3.05-2.26-1.187-0.593-2.627-0.89-4.32-0.89v0c-2.313 0-4.323 0.567-6.03 1.7-1.713 1.133-3.037 2.737-3.97 4.81-0.933 2.073-1.4 4.543-1.4 7.41v0c0 4.327 0.983 7.753 2.95 10.28 1.967 2.52 4.783 3.78 8.45 3.78v0c1.233 0 2.413-0.173 3.54-0.52 1.12-0.353 2.03-0.863 2.73-1.53v0-9.08h-7.3v-3.35h11.01v14.11c-1.073 1.14-2.503 2.077-4.29 2.81-1.793 0.733-3.813 1.1-6.06 1.1z" fill="#fe7833" fill-rule="nonzero" stroke="none" stroke-width="1" stroke-linecap="butt" strokeLinejoin="miter" stroke-miterlimit="10" stroke-dasharray="" stroke-dashoffset="0" font-family="none" font-weight="none" font-size="none" text-anchor="none" style="mix-blend-mode: normal" data-fill-palette-color="primary" opacity="1"></path></g></svg></g></svg></g><g transform="matrix(1,0,0,1,0,172.2999650178144)"><svg viewBox="0 0 232.209792 17.12911845749343" height="17.12911845749343" width="232.209792"><g transform="matrix(1,0,0,1,0,0)"><svg width="232.209792" viewBox="3 -39.65 684.51 50.5" height="17.12911845749343" data-palette-color="#fe7833"><path d="M3-34.55L20.15-34.55 19.5-29.8 9.35-29.8 9.35-19.9 18.2-19.9 18.2-15.2 9.35-15.2 9.35-4.8 20.15-4.8 20.15 0 3 0 3-34.55ZM41.95-26.45L35.85-14.15 43 0 36.5 0 32.1-10.65 27.8 0 21.45 0 28.6-13.95 22.15-26.45 28.55-26.45 32.2-17.25 35.75-26.45 41.95-26.45ZM57.9-27.15Q61.8-27.15 63.8-23.58 65.8-20 65.8-13.3L65.8-13.3Q65.8-6.8 63.52-3.03 61.25 0.75 57.2 0.75L57.2 0.75Q54 0.75 51.85-2.1L51.85-2.1 51.85 10.15 45.7 10.85 45.7-26.45 51.15-26.45 51.4-23.25Q52.7-25.25 54.3-26.2 55.9-27.15 57.9-27.15L57.9-27.15ZM55.55-3.95Q57.45-3.95 58.45-6.13 59.45-8.3 59.45-13.25L59.45-13.25Q59.45-18.45 58.6-20.5 57.75-22.55 55.95-22.55L55.95-22.55Q53.65-22.55 51.85-19.25L51.85-19.25 51.85-6.45Q53.45-3.95 55.55-3.95L55.55-3.95ZM89.24-13.85Q89.24-13.4 89.09-11.3L89.09-11.3 75.44-11.3Q75.64-7.2 76.87-5.58 78.09-3.95 80.34-3.95L80.34-3.95Q81.89-3.95 83.14-4.48 84.39-5 85.84-6.15L85.84-6.15 88.39-2.65Q84.89 0.75 79.99 0.75L79.99 0.75Q74.79 0.75 72.02-2.85 69.24-6.45 69.24-13L69.24-13Q69.24-19.55 71.89-23.35 74.54-27.15 79.39-27.15L79.39-27.15Q84.04-27.15 86.64-23.78 89.24-20.4 89.24-13.85L89.24-13.85ZM83.24-15.3L83.24-15.65Q83.24-19.4 82.34-21.13 81.44-22.85 79.44-22.85L79.44-22.85Q77.59-22.85 76.62-21.18 75.64-19.5 75.44-15.3L75.44-15.3 83.24-15.3ZM105.19-27.1Q106.34-27.1 107.24-26.75L107.24-26.75 106.24-20.85Q105.24-21.1 104.39-21.1L104.39-21.1Q102.49-21.1 101.39-19.45 100.29-17.8 99.69-14.55L99.69-14.55 99.69 0 93.54 0 93.54-26.45 98.89-26.45 99.34-21.85Q101.19-27.1 105.19-27.1L105.19-27.1ZM121.24-5L123.39-1.2Q120.94 0.75 117.64 0.75L117.64 0.75Q114.19 0.75 112.39-1.23 110.59-3.2 110.59-6.6L110.59-6.6 110.59-22 107.49-22 107.49-26.45 110.59-26.45 110.59-32.3 116.74-33.05 116.74-26.45 121.74-26.45 121.14-22 116.74-22 116.74-6.6Q116.74-4.2 118.79-4.2L118.79-4.2Q119.44-4.2 119.94-4.38 120.44-4.55 121.24-5L121.24-5ZM125.94-26.45L132.09-26.45 132.09 0 125.94 0 125.94-26.45ZM128.99-39.65Q130.64-39.65 131.66-38.6 132.69-37.55 132.69-35.9L132.69-35.9Q132.69-34.3 131.66-33.25 130.64-32.2 128.99-32.2L128.99-32.2Q127.34-32.2 126.31-33.25 125.29-34.3 125.29-35.9L125.29-35.9Q125.29-37.55 126.31-38.6 127.34-39.65 128.99-39.65L128.99-39.65ZM145.13-27.15Q149.83-27.15 153.08-24.05L153.08-24.05 150.73-20.7Q149.33-21.7 148.08-22.2 146.83-22.7 145.53-22.7L145.53-22.7Q144.08-22.7 143.26-21.93 142.43-21.15 142.43-19.8L142.43-19.8Q142.43-18.45 143.36-17.63 144.28-16.8 147.08-15.7L147.08-15.7Q150.53-14.35 152.18-12.5 153.83-10.65 153.83-7.55L153.83-7.55Q153.83-3.7 151.13-1.48 148.43 0.75 144.28 0.75L144.28 0.75Q141.58 0.75 139.31-0.23 137.03-1.2 135.33-2.95L135.33-2.95 138.33-6.25Q141.13-3.8 144.03-3.8L144.03-3.8Q145.68-3.8 146.63-4.67 147.58-5.55 147.58-7.1L147.58-7.1Q147.58-8.25 147.18-8.97 146.78-9.7 145.78-10.33 144.78-10.95 142.78-11.7L142.78-11.7Q139.33-13.05 137.86-14.85 136.38-16.65 136.38-19.45L136.38-19.45Q136.38-22.8 138.76-24.98 141.13-27.15 145.13-27.15L145.13-27.15ZM176.53-13.85Q176.53-13.4 176.38-11.3L176.38-11.3 162.73-11.3Q162.93-7.2 164.16-5.58 165.38-3.95 167.63-3.95L167.63-3.95Q169.18-3.95 170.43-4.48 171.68-5 173.13-6.15L173.13-6.15 175.68-2.65Q172.18 0.75 167.28 0.75L167.28 0.75Q162.08 0.75 159.31-2.85 156.53-6.45 156.53-13L156.53-13Q156.53-19.55 159.18-23.35 161.83-27.15 166.68-27.15L166.68-27.15Q171.33-27.15 173.93-23.78 176.53-20.4 176.53-13.85L176.53-13.85ZM170.53-15.3L170.53-15.65Q170.53-19.4 169.63-21.13 168.73-22.85 166.73-22.85L166.73-22.85Q164.88-22.85 163.91-21.18 162.93-19.5 162.73-15.3L162.73-15.3 170.53-15.3ZM183.33-7.05Q185.03-7.05 186.08-5.9 187.13-4.75 187.13-3.15L187.13-3.15Q187.13-1.55 186.08-0.4 185.03 0.75 183.33 0.75L183.33 0.75Q181.68 0.75 180.6-0.4 179.53-1.55 179.53-3.15L179.53-3.15Q179.53-4.75 180.6-5.9 181.68-7.05 183.33-7.05L183.33-7.05ZM209.47-34.55Q215.72-34.55 219-31.78 222.27-29 222.27-23.6L222.27-23.6Q222.27-17.85 219.05-15 215.82-12.15 209.92-12.15L209.92-12.15 207.92-12.15 207.92 0 201.57 0 201.57-34.55 209.47-34.55ZM209.57-16.9Q212.82-16.9 214.27-18.4 215.72-19.9 215.72-23.55L215.72-23.55Q215.72-26.85 214.27-28.35 212.82-29.85 209.62-29.85L209.62-29.85 207.92-29.85 207.92-16.9 209.57-16.9ZM237.52-27.1Q238.67-27.1 239.57-26.75L239.57-26.75 238.57-20.85Q237.57-21.1 236.72-21.1L236.72-21.1Q234.82-21.1 233.72-19.45 232.62-17.8 232.02-14.55L232.02-14.55 232.02 0 225.87 0 225.87-26.45 231.22-26.45 231.67-21.85Q233.52-27.1 237.52-27.1L237.52-27.1ZM261.27-13.85Q261.27-13.4 261.12-11.3L261.12-11.3 247.47-11.3Q247.67-7.2 248.89-5.58 250.12-3.95 252.37-3.95L252.37-3.95Q253.92-3.95 255.17-4.48 256.42-5 257.87-6.15L257.87-6.15 260.42-2.65Q256.92 0.75 252.02 0.75L252.02 0.75Q246.82 0.75 244.04-2.85 241.27-6.45 241.27-13L241.27-13Q241.27-19.55 243.92-23.35 246.57-27.15 251.42-27.15L251.42-27.15Q256.07-27.15 258.67-23.78 261.27-20.4 261.27-13.85L261.27-13.85ZM255.27-15.3L255.27-15.65Q255.27-19.4 254.37-21.13 253.47-22.85 251.47-22.85L251.47-22.85Q249.62-22.85 248.64-21.18 247.67-19.5 247.47-15.3L247.47-15.3 255.27-15.3ZM275.07-27.15Q277.22-27.15 278.97-26.43 280.72-25.7 282.32-24.15L282.32-24.15 279.67-20.65Q278.57-21.55 277.59-21.98 276.62-22.4 275.47-22.4L275.47-22.4Q273.22-22.4 272.07-20.28 270.92-18.15 270.92-13.1L270.92-13.1Q270.92-8.2 272.09-6.2 273.27-4.2 275.47-4.2L275.47-4.2Q276.57-4.2 277.47-4.6 278.37-5 279.57-5.85L279.57-5.85 282.32-2.3Q279.12 0.75 275.17 0.75L275.17 0.75Q270.07 0.75 267.24-2.73 264.42-6.2 264.42-13L264.42-13Q264.42-17.4 265.72-20.6 267.02-23.8 269.44-25.48 271.87-27.15 275.07-27.15L275.07-27.15ZM285.36-26.45L291.51-26.45 291.51 0 285.36 0 285.36-26.45ZM288.41-39.65Q290.06-39.65 291.09-38.6 292.11-37.55 292.11-35.9L292.11-35.9Q292.11-34.3 291.09-33.25 290.06-32.2 288.41-32.2L288.41-32.2Q286.76-32.2 285.74-33.25 284.71-34.3 284.71-35.9L284.71-35.9Q284.71-37.55 285.74-38.6 286.76-39.65 288.41-39.65L288.41-39.65ZM304.56-27.15Q309.26-27.15 312.51-24.05L312.51-24.05 310.16-20.7Q308.76-21.7 307.51-22.2 306.26-22.7 304.96-22.7L304.96-22.7Q303.51-22.7 302.69-21.93 301.86-21.15 301.86-19.8L301.86-19.8Q301.86-18.45 302.79-17.63 303.71-16.8 306.51-15.7L306.51-15.7Q309.96-14.35 311.61-12.5 313.26-10.65 313.26-7.55L313.26-7.55Q313.26-3.7 310.56-1.48 307.86 0.75 303.71 0.75L303.71 0.75Q301.01 0.75 298.74-0.23 296.46-1.2 294.76-2.95L294.76-2.95 297.76-6.25Q300.56-3.8 303.46-3.8L303.46-3.8Q305.11-3.8 306.06-4.67 307.01-5.55 307.01-7.1L307.01-7.1Q307.01-8.25 306.61-8.97 306.21-9.7 305.21-10.33 304.21-10.95 302.21-11.7L302.21-11.7Q298.76-13.05 297.29-14.85 295.81-16.65 295.81-19.45L295.81-19.45Q295.81-22.8 298.19-24.98 300.56-27.15 304.56-27.15L304.56-27.15ZM317.11-26.45L323.26-26.45 323.26 0 317.11 0 317.11-26.45ZM320.16-39.65Q321.81-39.65 322.83-38.6 323.86-37.55 323.86-35.9L323.86-35.9Q323.86-34.3 322.83-33.25 321.81-32.2 320.16-32.2L320.16-32.2Q318.51-32.2 317.48-33.25 316.46-34.3 316.46-35.9L316.46-35.9Q316.46-37.55 317.48-38.6 318.51-39.65 320.16-39.65L320.16-39.65ZM338.36-27.15Q343.36-27.15 346.13-23.65 348.91-20.15 348.91-13.25L348.91-13.25Q348.91-6.65 346.11-2.95 343.31 0.75 338.36 0.75L338.36 0.75Q333.41 0.75 330.61-2.88 327.81-6.5 327.81-13.25L327.81-13.25Q327.81-19.95 330.61-23.55 333.41-27.15 338.36-27.15L338.36-27.15ZM338.36-22.5Q336.21-22.5 335.21-20.38 334.21-18.25 334.21-13.25L334.21-13.25Q334.21-8.2 335.21-6.08 336.21-3.95 338.36-3.95L338.36-3.95Q340.51-3.95 341.51-6.08 342.51-8.2 342.51-13.25L342.51-13.25Q342.51-18.3 341.51-20.4 340.51-22.5 338.36-22.5L338.36-22.5ZM365.8-27.15Q368.65-27.15 370.3-25.1 371.95-23.05 371.95-19.6L371.95-19.6 371.95 0 365.8 0 365.8-18.9Q365.8-20.8 365.28-21.63 364.75-22.45 363.75-22.45L363.75-22.45Q361.65-22.45 359.6-18.5L359.6-18.5 359.6 0 353.45 0 353.45-26.45 358.8-26.45 359.25-23Q360.6-25.1 362.13-26.13 363.65-27.15 365.8-27.15L365.8-27.15ZM380-7.05Q381.7-7.05 382.75-5.9 383.8-4.75 383.8-3.15L383.8-3.15Q383.8-1.55 382.75-0.4 381.7 0.75 380 0.75L380 0.75Q378.35 0.75 377.28-0.4 376.2-1.55 376.2-3.15L376.2-3.15Q376.2-4.75 377.28-5.9 378.35-7.05 380-7.05L380-7.05ZM395.65-34.55L417.2-34.55 416.5-29.55 409.4-29.55 409.4 0 403.05 0 403.05-29.55 395.65-29.55 395.65-34.55ZM431.74-27.1Q432.89-27.1 433.79-26.75L433.79-26.75 432.79-20.85Q431.79-21.1 430.94-21.1L430.94-21.1Q429.04-21.1 427.94-19.45 426.84-17.8 426.24-14.55L426.24-14.55 426.24 0 420.09 0 420.09-26.45 425.44-26.45 425.89-21.85Q427.74-27.1 431.74-27.1L431.74-27.1ZM453.54-6.4Q453.54-5.1 453.89-4.48 454.24-3.85 455.04-3.45L455.04-3.45 453.79 0.65Q451.74 0.4 450.52-0.45 449.29-1.3 448.69-3.05L448.69-3.05Q446.39 0.75 442.24 0.75L442.24 0.75Q438.94 0.75 436.99-1.48 435.04-3.7 435.04-7.4L435.04-7.4Q435.04-11.7 437.72-13.95 440.39-16.2 445.49-16.2L445.49-16.2 447.54-16.2 447.54-18.05Q447.54-20.55 446.67-21.58 445.79-22.6 443.84-22.6L443.84-22.6Q441.49-22.6 437.99-21.3L437.99-21.3 436.59-25.3Q438.59-26.2 440.74-26.68 442.89-27.15 444.84-27.15L444.84-27.15Q453.54-27.15 453.54-18.35L453.54-18.35 453.54-6.4ZM443.89-3.7Q446.29-3.7 447.54-7L447.54-7 447.54-12.55 446.09-12.55Q443.54-12.55 442.37-11.4 441.19-10.25 441.19-7.85L441.19-7.85Q441.19-5.8 441.89-4.75 442.59-3.7 443.89-3.7L443.89-3.7ZM471.69-27.15Q474.54-27.15 476.19-25.1 477.84-23.05 477.84-19.6L477.84-19.6 477.84 0 471.69 0 471.69-18.9Q471.69-20.8 471.16-21.63 470.64-22.45 469.64-22.45L469.64-22.45Q467.54-22.45 465.49-18.5L465.49-18.5 465.49 0 459.34 0 459.34-26.45 464.69-26.45 465.14-23Q466.49-25.1 468.01-26.13 469.54-27.15 471.69-27.15L471.69-27.15ZM490.74-27.15Q495.44-27.15 498.69-24.05L498.69-24.05 496.34-20.7Q494.94-21.7 493.69-22.2 492.44-22.7 491.14-22.7L491.14-22.7Q489.69-22.7 488.86-21.93 488.04-21.15 488.04-19.8L488.04-19.8Q488.04-18.45 488.96-17.63 489.89-16.8 492.69-15.7L492.69-15.7Q496.14-14.35 497.79-12.5 499.44-10.65 499.44-7.55L499.44-7.55Q499.44-3.7 496.74-1.48 494.04 0.75 489.89 0.75L489.89 0.75Q487.19 0.75 484.91-0.23 482.64-1.2 480.94-2.95L480.94-2.95 483.94-6.25Q486.74-3.8 489.64-3.8L489.64-3.8Q491.29-3.8 492.24-4.67 493.19-5.55 493.19-7.1L493.19-7.1Q493.19-8.25 492.79-8.97 492.39-9.7 491.39-10.33 490.39-10.95 488.39-11.7L488.39-11.7Q484.94-13.05 483.46-14.85 481.99-16.65 481.99-19.45L481.99-19.45Q481.99-22.8 484.36-24.98 486.74-27.15 490.74-27.15L490.74-27.15ZM512.98-33.05Q511.58-33.05 510.91-32.3 510.23-31.55 510.23-30L510.23-30 510.23-26.45 515.28-26.45 514.58-22 510.23-22 510.23 0 504.08 0 504.08-22 500.78-22 500.78-26.45 504.08-26.45 504.08-29.8Q504.08-33.4 506.18-35.55 508.28-37.7 512.18-37.7L512.18-37.7Q515.23-37.7 518.08-36.2L518.08-36.2 516.38-32.2Q514.63-33.05 512.98-33.05L512.98-33.05ZM527.48-27.15Q532.48-27.15 535.25-23.65 538.03-20.15 538.03-13.25L538.03-13.25Q538.03-6.65 535.23-2.95 532.43 0.75 527.48 0.75L527.48 0.75Q522.53 0.75 519.73-2.88 516.93-6.5 516.93-13.25L516.93-13.25Q516.93-19.95 519.73-23.55 522.53-27.15 527.48-27.15L527.48-27.15ZM527.48-22.5Q525.33-22.5 524.33-20.38 523.33-18.25 523.33-13.25L523.33-13.25Q523.33-8.2 524.33-6.08 525.33-3.95 527.48-3.95L527.48-3.95Q529.63-3.95 530.63-6.08 531.63-8.2 531.63-13.25L531.63-13.25Q531.63-18.3 530.63-20.4 529.63-22.5 527.48-22.5L527.48-22.5ZM554.23-27.1Q555.38-27.1 556.28-26.75L556.28-26.75 555.28-20.85Q554.28-21.1 553.43-21.1L553.43-21.1Q551.53-21.1 550.43-19.45 549.33-17.8 548.73-14.55L548.73-14.55 548.73 0 542.58 0 542.58-26.45 547.93-26.45 548.38-21.85Q550.23-27.1 554.23-27.1L554.23-27.1ZM582.77-27.15Q585.42-27.15 587.02-25.1 588.62-23.05 588.62-19.6L588.62-19.6 588.62 0 582.57 0 582.57-18.95Q582.57-20.85 582.07-21.68 581.57-22.5 580.62-22.5L580.62-22.5Q578.67-22.5 576.87-18.8L576.87-18.8 576.87 0 570.87 0 570.87-18.95Q570.87-22.5 568.97-22.5L568.97-22.5Q566.92-22.5 565.17-18.8L565.17-18.8 565.17 0 559.12 0 559.12-26.45 564.47-26.45 564.87-23.05Q567.47-27.15 571.12-27.15L571.12-27.15Q572.97-27.15 574.32-26 575.67-24.85 576.37-22.75L576.37-22.75Q579.02-27.15 582.77-27.15L582.77-27.15ZM611.02-6.4Q611.02-5.1 611.37-4.48 611.72-3.85 612.52-3.45L612.52-3.45 611.27 0.65Q609.22 0.4 608-0.45 606.77-1.3 606.17-3.05L606.17-3.05Q603.87 0.75 599.72 0.75L599.72 0.75Q596.42 0.75 594.47-1.48 592.52-3.7 592.52-7.4L592.52-7.4Q592.52-11.7 595.2-13.95 597.87-16.2 602.97-16.2L602.97-16.2 605.02-16.2 605.02-18.05Q605.02-20.55 604.15-21.58 603.27-22.6 601.32-22.6L601.32-22.6Q598.97-22.6 595.47-21.3L595.47-21.3 594.07-25.3Q596.07-26.2 598.22-26.68 600.37-27.15 602.32-27.15L602.32-27.15Q611.02-27.15 611.02-18.35L611.02-18.35 611.02-6.4ZM601.37-3.7Q603.77-3.7 605.02-7L605.02-7 605.02-12.55 603.57-12.55Q601.02-12.55 599.85-11.4 598.67-10.25 598.67-7.85L598.67-7.85Q598.67-5.8 599.37-4.75 600.07-3.7 601.37-3.7L601.37-3.7ZM627.97-5L630.12-1.2Q627.67 0.75 624.37 0.75L624.37 0.75Q620.92 0.75 619.12-1.23 617.32-3.2 617.32-6.6L617.32-6.6 617.32-22 614.22-22 614.22-26.45 617.32-26.45 617.32-32.3 623.47-33.05 623.47-26.45 628.47-26.45 627.87-22 623.47-22 623.47-6.6Q623.47-4.2 625.52-4.2L625.52-4.2Q626.17-4.2 626.67-4.38 627.17-4.55 627.97-5L627.97-5ZM632.67-26.45L638.82-26.45 638.82 0 632.67 0 632.67-26.45ZM635.72-39.65Q637.37-39.65 638.39-38.6 639.42-37.55 639.42-35.9L639.42-35.9Q639.42-34.3 638.39-33.25 637.37-32.2 635.72-32.2L635.72-32.2Q634.07-32.2 633.04-33.25 632.02-34.3 632.02-35.9L632.02-35.9Q632.02-37.55 633.04-38.6 634.07-39.65 635.72-39.65L635.72-39.65ZM653.91-27.15Q658.91-27.15 661.69-23.65 664.46-20.15 664.46-13.25L664.46-13.25Q664.46-6.65 661.66-2.95 658.86 0.75 653.91 0.75L653.91 0.75Q648.96 0.75 646.16-2.88 643.36-6.5 643.36-13.25L643.36-13.25Q643.36-19.95 646.16-23.55 648.96-27.15 653.91-27.15L653.91-27.15ZM653.91-22.5Q651.76-22.5 650.76-20.38 649.76-18.25 649.76-13.25L649.76-13.25Q649.76-8.2 650.76-6.08 651.76-3.95 653.91-3.95L653.91-3.95Q656.06-3.95 657.06-6.08 658.06-8.2 658.06-13.25L658.06-13.25Q658.06-18.3 657.06-20.4 656.06-22.5 653.91-22.5L653.91-22.5ZM681.36-27.15Q684.21-27.15 685.86-25.1 687.51-23.05 687.51-19.6L687.51-19.6 687.51 0 681.36 0 681.36-18.9Q681.36-20.8 680.84-21.63 680.31-22.45 679.31-22.45L679.31-22.45Q677.21-22.45 675.16-18.5L675.16-18.5 675.16 0 669.01 0 669.01-26.45 674.36-26.45 674.81-23Q676.16-25.1 677.69-26.13 679.21-27.15 681.36-27.15L681.36-27.15Z" opacity="1" transform="matrix(1,0,0,1,0,0)" fill="#fe7833" class="slogan-text-1" data-fill-palette-color="secondary" id="text-1"></path></svg></g></svg></g></svg></g></svg></g><g><svg viewBox="0 0 244.43135999999998 244.43135999999998" height="244.43135999999998" width="244.43135999999998"><g data-palette-color="#fe7833"><rect width="66.8112384" height="244.43135999999998" fill="#fe7833" stroke="transparent" data-fill-palette-color="accent" x="0" fill-opacity="0.5"></rect><rect width="66.8112384" height="244.43135999999998" fill="#fe7833" stroke="transparent" data-fill-palette-color="accent" x="81.47711999999999" fill-opacity="0.75"></rect><rect width="66.8112384" height="244.43135999999998" fill="#fe7833" stroke="transparent" data-fill-palette-color="accent" x="162.95423999999997" fill-opacity="1"></rect></g></svg></g></svg></g><defs></defs></svg><rect width="395.52" height="148.3699248731311" fill="none" stroke="none" visibility="hidden"></rect></g></svg></g></svg>
